<svg width="18" height="20" viewBox="0 0 18 20" fill="none" xmlns="http://www.w3.org/2000/svg">
<path fill-rule="evenodd" clip-rule="evenodd" d="M16.5 5C16.5 6.65686 15.1568 8 13.5 8C11.8431 8 10.5 6.65686 10.5 5C10.5 3.34314 11.8431 2 13.5 2C15.1568 2 16.5 3.34314 16.5 5ZM15 5C15 5.82843 14.3284 6.5 13.5 6.5C12.6716 6.5 12 5.82843 12 5C12 4.17157 12.6716 3.5 13.5 3.5C14.3284 3.5 15 4.17157 15 5Z" fill="white"/>
<path d="M16.5 11C16.5 10.5858 16.1642 10.25 15.75 10.25H11.25C10.8358 10.25 10.5 10.5858 10.5 11V15.5H9V11C9 9.75732 10.0074 8.75 11.25 8.75H15.75C16.9927 8.75 18 9.75732 18 11V15.5H16.5V11Z" fill="white"/>
<path fill-rule="evenodd" clip-rule="evenodd" d="M10.8334 4.33333C10.8334 6.72657 8.89321 8.66667 6.50002 8.66667C4.10679 8.66667 2.16669 6.72657 2.16669 4.33333C2.16669 1.9401 4.10679 0 6.50002 0C8.89321 0 10.8334 1.9401 10.8334 4.33333ZM8.66669 4.33333C8.66669 5.52995 7.69667 6.5 6.50002 6.5C5.30337 6.5 4.33335 5.52995 4.33335 4.33333C4.33335 3.13672 5.30337 2.16667 6.50002 2.16667C7.69667 2.16667 8.66669 3.13672 8.66669 4.33333Z" fill="white"/>
<path d="M10.8333 13C10.8333 12.4017 10.3483 11.9167 9.75 11.9167H3.25C2.6517 11.9167 2.16667 12.4017 2.16667 13V19.5H0V13C0 11.205 1.45508 9.75 3.25 9.75H9.75C11.545 9.75 13 11.205 13 13V19.5H10.8333V13Z" fill="white"/>
</svg>
