<svg width="51" height="28" viewBox="0 0 51 28" fill="none" xmlns="http://www.w3.org/2000/svg">
<path d="M30.3333 16.3333H21V21H30.3333V16.3333Z" fill="white"/>
<path fill-rule="evenodd" clip-rule="evenodd" d="M16.3334 16.3333C18.9107 16.3333 21.0001 14.2441 21.0001 11.6667C21.0001 9.08934 18.9107 7 16.3334 7C13.756 7 11.6667 9.08934 11.6667 11.6667C11.6667 14.2441 13.756 16.3333 16.3334 16.3333ZM16.3334 12.8333C16.9777 12.8333 17.5 12.3109 17.5 11.6667C17.5 11.0224 16.9777 10.5 16.3334 10.5C15.689 10.5 15.1667 11.0224 15.1667 11.6667C15.1667 12.3109 15.689 12.8333 16.3334 12.8333Z" fill="white"/>
<path fill-rule="evenodd" clip-rule="evenodd" d="M39.6666 11.6667C39.6666 14.2441 37.5771 16.3333 35 16.3333C32.4226 16.3333 30.3333 14.2441 30.3333 11.6667C30.3333 9.08934 32.4226 7 35 7C37.5771 7 39.6666 9.08934 39.6666 11.6667ZM36.1666 11.6667C36.1666 12.3109 35.6442 12.8333 35 12.8333C34.3555 12.8333 33.8333 12.3109 33.8333 11.6667C33.8333 11.0224 34.3555 10.5 35 10.5C35.6442 10.5 36.1666 11.0224 36.1666 11.6667Z" fill="white"/>
<path fill-rule="evenodd" clip-rule="evenodd" d="M3.7881 20.2214C6.07878 24.8316 10.836 28 16.3333 28H35.0001C40.6934 28 45.5929 24.6015 47.7809 19.7225C49.5759 18.455 50.7482 16.3644 50.7482 14C50.7482 11.6356 49.5759 9.54497 47.7809 8.27757C45.5929 3.39852 40.6934 0 35.0001 0H16.3333C10.836 0 6.07878 3.16843 3.7881 7.77875C1.53792 8.9428 0 11.2917 0 14C0 16.7083 1.53792 19.0573 3.7881 20.2214ZM16.3333 4.66667H35.0001C38.228 4.66667 41.0733 6.30546 42.7493 8.79646C43.3938 10.405 43.7482 12.1611 43.7482 14C43.7482 15.8389 43.3938 17.595 42.7493 19.2036C41.0733 21.6946 38.228 23.3333 35.0001 23.3333H16.3333C11.1787 23.3333 7 19.1546 7 14C7 8.84534 11.1787 4.66667 16.3333 4.66667Z" fill="white"/>
</svg>
