<svg width="3" height="11" viewBox="0 0 3 11" fill="none" xmlns="http://www.w3.org/2000/svg">
<path d="M2.75 1.375C2.75 2.13439 2.13441 2.75 1.375 2.75C0.615588 2.75 0 2.13439 0 1.375C0 0.615608 0.615588 0 1.375 0C2.13441 0 2.75 0.615608 2.75 1.375Z" fill="white"/>
<path d="M2.75 5.5C2.75 6.25941 2.13441 6.875 1.375 6.875C0.615588 6.875 0 6.25941 0 5.5C0 4.74059 0.615588 4.125 1.375 4.125C2.13441 4.125 2.75 4.74059 2.75 5.5Z" fill="white"/>
<path d="M2.75 9.625C2.75 10.3844 2.13441 11 1.375 11C0.615588 11 0 10.3844 0 9.625C0 8.86559 0.615588 8.25 1.375 8.25C2.13441 8.25 2.75 8.86559 2.75 9.625Z" fill="white"/>
</svg>
