<svg width="29" height="29" viewBox="0 0 29 29" fill="none" xmlns="http://www.w3.org/2000/svg">
<path d="M14.5 0C13.499 0 12.6875 0.811493 12.6875 1.8125V12.6875H1.8125C0.811493 12.6875 0 13.499 0 14.5C0 15.501 0.811493 16.3125 1.8125 16.3125H12.6875V27.1875C12.6875 28.1885 13.499 29 14.5 29C15.501 29 16.3125 28.1885 16.3125 27.1875V16.3125H27.1875C28.1885 16.3125 29 15.501 29 14.5C29 13.499 28.1885 12.6875 27.1875 12.6875H16.3125V1.8125C16.3125 0.811493 15.501 0 14.5 0Z" fill="#248046"/>
</svg>
