<svg width="16" height="16" viewBox="0 0 16 16" fill="none" xmlns="http://www.w3.org/2000/svg">
<path fill-rule="evenodd" clip-rule="evenodd" d="M10.4348 5.56523C10.4348 7.102 9.18894 8.34784 7.65218 8.34784C6.11538 8.34784 4.86957 7.102 4.86957 5.56523C4.86957 4.02844 6.11538 2.78262 7.65218 2.78262C9.18894 2.78262 10.4348 4.02844 10.4348 5.56523ZM9.04348 5.56523C9.04348 6.33365 8.42059 6.95654 7.65218 6.95654C6.88376 6.95654 6.26087 6.33365 6.26087 5.56523C6.26087 4.79684 6.88376 4.17393 7.65218 4.17393C8.42059 4.17393 9.04348 4.79684 9.04348 5.56523Z" fill="white"/>
<path fill-rule="evenodd" clip-rule="evenodd" d="M8 0C3.58172 0 0 3.58172 0 8C0 12.4183 3.58172 16 8 16C12.4183 16 16 12.4183 16 8C16 3.58172 12.4183 0 8 0ZM1.45455 8C1.45455 9.52015 1.97276 10.9193 2.84217 12.0303C4.03815 10.4647 5.92456 9.45455 8.04691 9.45455C10.1417 9.45455 12.0067 10.4386 13.2047 11.9697C14.0458 10.8686 14.5455 9.49265 14.5455 8C14.5455 4.38505 11.615 1.45455 8 1.45455C4.38505 1.45455 1.45455 4.38505 1.45455 8ZM8 14.5455C6.4362 14.5455 5.00047 13.997 3.87467 13.082C4.79529 11.7681 6.32077 10.9091 8.04691 10.9091C9.75156 10.9091 11.2606 11.747 12.1846 13.0334C11.0501 13.9775 9.59135 14.5455 8 14.5455Z" fill="white"/>
</svg>
